<!DOCTYPE svg PUBLIC "-//W3C//DTD SVG 20010904//EN" "http://www.w3.org/TR/2001/REC-SVG-20010904/DTD/svg10.dtd">
<svg version="1.0" xmlns="http://www.w3.org/2000/svg" width="1200px" height="633px" viewBox="0 0 12000 6330" preserveAspectRatio="xMidYMid meet">
<g id="layer101" fill="#1c3144" stroke="none">
 <path d="M9155 6315 c-592 -55 -1165 -256 -1555 -546 -108 -81 -314 -280 -384 -373 -139 -182 -196 -362 -196 -616 1 -187 27 -269 126 -392 136 -168 333 -263 574 -275 130 -6 221 5 337 42 209 66 391 245 464 455 27 78 32 235 10 315 -67 240 -273 432 -536 501 -100 27 -341 26 -445 0 -103 -26 -212 -74 -299 -130 -40 -26 -75 -45 -78 -42 -8 8 197 267 261 329 239 232 769 500 1181 597 410 96 1048 87 1364 -19 274 -92 535 -282 672 -490 118 -179 133 -242 126 -536 -5 -242 -13 -282 -84 -425 -188 -376 -574 -634 -1333 -891 -96 -33 -281 -91 -410 -130 -654 -196 -873 -282 -1178 -463 -197 -117 -313 -212 -434 -356 -179 -212 -292 -470 -329 -747 -19 -143 -7 -393 26 -538 84 -369 299 -725 592 -978 374 -322 714 -478 1198 -549 129 -19 194 -22 465 -22 193 -1 358 4 425 12 684 79 1202 289 1541 626 215 213 284 362 284 609 0 116 -18 203 -56 280 -87 173 -274 319 -479 373 -99 26 -351 26 -450 0 -163 -42 -329 -148 -416 -266 -95 -128 -133 -239 -133 -390 0 -170 50 -292 173 -423 165 -175 330 -239 611 -239 175 -1 244 14 373 77 111 55 125 44 44 -31 -118 -110 -385 -270 -597 -357 -353 -146 -806 -231 -1225 -230 -397 1 -683 83 -908 262 -221 176 -328 439 -314 771 11 241 79 409 226 558 241 245 633 421 1556 697 667 200 858 277 1126 454 229 150 418 316 577 506 264 314 341 557 329 1030 -8 312 -47 495 -154 710 -248 503 -727 894 -1349 1104 -398 134 -875 187 -1319 146z"/>
 <path d="M125 6221 c-187 -9 -133 -23 113 -29 l202 -5 0 -3003 0 -3004 -23 -5 c-12 -3 -58 -6 -102 -8 -44 -2 408 -3 1005 -3 597 0 1049 1 1005 3 -44 2 -90 5 -102 8 l-23 5 0 3010 0 3010 28 0 c88 0 536 -32 637 -46 403 -52 756 -154 1055 -303 353 -177 737 -514 938 -826 162 -251 319 -685 341 -944 9 -102 25 -151 43 -133 24 24 30 343 24 1291 -3 536 -8 976 -11 979 -7 7 -4978 10 -5130 3z"/>
 </g>

</svg>